<svg width="114" height="114" viewBox="0 0 114 114" fill="none" xmlns="http://www.w3.org/2000/svg">
<path d="M102.646 90.4323C105.21 88.4782 106.875 85.402 106.875 81.9375C106.875 76.6525 103.015 72.2635 97.9688 71.4103V69.4688C97.9688 64.5578 93.9734 60.5625 89.0625 60.5625H58.7812V54.0716C59.7431 54.8037 60.8992 55.2188 62.1282 55.2188C65.1278 55.2188 67.5628 52.8283 67.6679 49.8554C70.5749 49.7521 72.9083 47.4187 73.0117 44.5117C75.9187 44.4083 78.2521 42.0749 78.3554 39.1679C81.3283 39.0628 83.7188 36.6261 83.7188 33.6282C83.7188 32.1427 83.1398 30.7462 82.0907 29.697L81.7202 29.3265C84.1676 26.3233 85.5 22.6041 85.5 18.6764C85.5 9.36047 77.9208 1.78125 68.6048 1.78125C64.2461 1.78125 60.151 3.43425 57 6.41963C53.849 3.43425 49.7539 1.78125 45.3952 1.78125C36.0792 1.78125 28.5 9.36047 28.5 18.6764C28.5 23.0529 30.1655 27.1658 33.1758 30.3222C32.4651 31.277 32.0625 32.417 32.0625 33.6282C32.0625 36.6278 34.4529 39.0628 37.4258 39.1679C37.5292 42.0749 39.8626 44.4083 42.7696 44.5117C42.8729 47.4187 45.2063 49.7521 48.1133 49.8554C48.2184 52.8283 50.6552 55.2188 53.653 55.2188C54.1945 55.2188 54.7147 55.1172 55.2188 54.9694V60.5625H24.9375C20.0266 60.5625 16.0312 64.5578 16.0312 69.4688V71.4103C10.985 72.2635 7.125 76.6525 7.125 81.9375C7.125 85.402 8.79047 88.4782 11.3537 90.4323C5.72494 92.9225 1.78125 98.553 1.78125 105.094V112.219H33.8438V105.094C33.8438 98.553 29.9001 92.9225 24.2713 90.4323C26.8345 88.4782 28.5 85.402 28.5 81.9375C28.5 76.6525 24.64 72.2635 19.5938 71.4103V69.4688C19.5938 66.5226 21.9913 64.125 24.9375 64.125H55.2188V71.4103C50.1725 72.2617 46.3125 76.6507 46.3125 81.9375C46.3125 85.402 47.978 88.4782 50.5412 90.4323C44.9124 92.9225 40.9688 98.553 40.9688 105.094V112.219H73.0312V105.094C73.0312 98.553 69.0876 92.9225 63.4588 90.4323C66.022 88.4782 67.6875 85.402 67.6875 81.9375C67.6875 76.6525 63.8275 72.2635 58.7812 71.4103V64.125H89.0625C92.0087 64.125 94.4062 66.5226 94.4062 69.4688V71.4103C89.36 72.2617 85.5 76.6507 85.5 81.9375C85.5 85.402 87.1655 88.4782 89.7287 90.4323C84.0999 92.9225 80.1562 98.553 80.1562 105.094V112.219H112.219V105.094C112.219 98.553 108.275 92.9225 102.646 90.4323ZM68.6048 5.34375C75.9561 5.34375 81.9375 11.3252 81.9375 18.6764C81.9375 21.6493 80.9596 24.4655 79.1766 26.7811L70.9864 18.5909C71.5172 18.1919 72.032 17.768 72.5111 17.2906L69.9924 14.7719C68.0295 16.7331 65.4235 17.8125 62.6483 17.8125H59.8251L56.7845 20.8531C56.4478 21.1897 55.9989 21.375 55.5233 21.375H48.8312C48.4251 21.375 48.0938 21.0437 48.0938 20.6376C48.0938 20.4434 48.1721 20.2528 48.3093 20.1157L59.1767 9.24825C61.6954 6.73134 65.0423 5.34375 68.6048 5.34375ZM45.3952 5.34375C48.7938 5.34375 51.9893 6.61912 54.4635 8.92228L45.7888 17.597C44.9783 18.4074 44.5312 19.4887 44.5312 20.6376C44.5312 23.0084 46.4603 24.9375 48.8312 24.9375H55.5233C56.9501 24.9375 58.2932 24.3818 59.3032 23.3718L61.2999 21.375H62.6483C64.4278 21.375 66.1521 21.0348 67.7588 20.4024L79.572 32.2157C79.9478 32.5933 80.1562 33.0938 80.1562 33.6282C80.1562 34.729 79.2603 35.625 78.1595 35.625C77.6251 35.625 77.1246 35.4166 76.7469 35.0408L72.5093 30.8032L69.9907 33.3218L74.2282 37.5594C74.6041 37.9371 74.8125 38.4376 74.8125 38.972C74.8125 40.0728 73.9165 40.9688 72.8157 40.9688C72.2813 40.9688 71.7808 40.7603 71.4032 40.3845L67.1656 36.1469L64.6469 38.6656L68.8845 42.9032C69.2603 43.2808 69.4688 43.7813 69.4688 44.3157C69.4688 45.4165 68.5728 46.3125 67.472 46.3125C66.9376 46.3125 66.4371 46.1041 66.0594 45.7283L61.8218 41.4907L59.3032 44.0093L63.5408 48.2469C63.9166 48.6246 64.125 49.1251 64.125 49.6595C64.125 50.7603 63.229 51.6562 62.1282 51.6562C61.5938 51.6562 61.0933 51.4478 60.7157 51.072L60.1207 50.4771C60.4075 49.8002 60.5625 49.0681 60.5625 48.3093C60.5625 45.3097 58.1721 42.8747 55.1992 42.7696C55.0958 39.8626 52.7624 37.5292 49.8554 37.4258C49.7521 34.5188 47.4187 32.1854 44.5117 32.0821C44.4066 29.1092 41.9698 26.7188 38.972 26.7188C37.7732 26.7188 36.6439 27.1106 35.698 27.8071C33.3575 25.324 32.0625 22.1035 32.0625 18.6764C32.0625 11.3252 38.0439 5.34375 45.3952 5.34375ZM35.625 33.6282C35.625 33.0938 35.8334 32.5933 36.2092 32.2157L37.5594 30.8655C37.9371 30.4897 38.4376 30.2812 38.972 30.2812C40.0728 30.2812 40.9688 31.1772 40.9688 32.278C40.9688 32.8124 40.7603 33.3129 40.3845 33.6906L39.0343 35.0408C38.6567 35.4166 38.1562 35.625 37.6218 35.625C36.521 35.625 35.625 34.729 35.625 33.6282ZM40.9688 38.972C40.9688 38.4376 41.1772 37.9371 41.553 37.5594L42.9032 36.2092C43.2808 35.8334 43.7813 35.625 44.3157 35.625C45.4165 35.625 46.3125 36.521 46.3125 37.6218C46.3125 38.1562 46.1041 38.6567 45.7283 39.0343L44.3781 40.3845C44.0004 40.7603 43.4999 40.9688 42.9655 40.9688C41.8647 40.9688 40.9688 40.0728 40.9688 38.972ZM46.3125 44.3157C46.3125 43.7813 46.5209 43.2808 46.8967 42.9032L48.2469 41.553C48.6246 41.1772 49.1251 40.9688 49.6595 40.9688C50.7603 40.9688 51.6562 41.8647 51.6562 42.9655C51.6562 43.4999 51.4478 44.0004 51.072 44.3781L49.7218 45.7283C49.3442 46.1041 48.8437 46.3125 48.3093 46.3125C47.2085 46.3125 46.3125 45.4165 46.3125 44.3157ZM53.653 51.6562C52.5522 51.6562 51.6562 50.7603 51.6562 49.6595C51.6562 49.1251 51.8647 48.6246 52.2405 48.2469L53.5907 46.8967C53.9683 46.5209 54.4688 46.3125 55.0032 46.3125C56.104 46.3125 57 47.2085 57 48.3093C57 48.8437 56.7916 49.3442 56.4158 49.7218L55.0656 51.072C54.6879 51.4478 54.1874 51.6562 53.653 51.6562ZM30.2812 105.094V108.656H26.7188V101.531H23.1562V108.656H12.4688V101.531H8.90625V108.656H5.34375V105.094C5.34375 98.2181 10.9369 92.625 17.8125 92.625C24.6881 92.625 30.2812 98.2181 30.2812 105.094ZM24.9375 81.9375C24.9375 85.8669 21.7419 89.0625 17.8125 89.0625C13.8831 89.0625 10.6875 85.8669 10.6875 81.9375C10.6875 78.0081 13.8831 74.8125 17.8125 74.8125C21.7419 74.8125 24.9375 78.0081 24.9375 81.9375ZM69.4688 105.094V108.656H65.9062V101.531H62.3438V108.656H51.6562V101.531H48.0938V108.656H44.5312V105.094C44.5312 98.2181 50.1244 92.625 57 92.625C63.8756 92.625 69.4688 98.2181 69.4688 105.094ZM64.125 81.9375C64.125 85.8669 60.9294 89.0625 57 89.0625C53.0706 89.0625 49.875 85.8669 49.875 81.9375C49.875 78.0081 53.0706 74.8125 57 74.8125C60.9294 74.8125 64.125 78.0081 64.125 81.9375ZM89.0625 81.9375C89.0625 78.0081 92.2581 74.8125 96.1875 74.8125C100.117 74.8125 103.312 78.0081 103.312 81.9375C103.312 85.8669 100.117 89.0625 96.1875 89.0625C92.2581 89.0625 89.0625 85.8669 89.0625 81.9375ZM108.656 108.656H105.094V101.531H101.531V108.656H90.8438V101.531H87.2812V108.656H83.7188V105.094C83.7188 98.2181 89.3119 92.625 96.1875 92.625C103.063 92.625 108.656 98.2181 108.656 105.094V108.656Z" fill="#333333"/>
<path d="M67.6875 67.6875H71.25V71.25H67.6875V67.6875Z" fill="#333333"/>
<path d="M74.8125 67.6875H78.375V71.25H74.8125V67.6875Z" fill="#333333"/>
<path d="M81.9375 67.6875H85.5V71.25H81.9375V67.6875Z" fill="#333333"/>
<path d="M28.5 67.6875H32.0625V71.25H28.5V67.6875Z" fill="#333333"/>
<path d="M35.625 67.6875H39.1875V71.25H35.625V67.6875Z" fill="#333333"/>
<path d="M42.75 67.6875H46.3125V71.25H42.75V67.6875Z" fill="#333333"/>
</svg>
