<svg width="89" height="115" viewBox="0 0 89 115" fill="none" xmlns="http://www.w3.org/2000/svg">
<path d="M88.9727 18.7583L70.2144 0H14.4023V61.1553C6.362 61.8417 0.0273438 68.6011 0.0273438 76.8164C0.0273438 81.5332 2.11801 85.768 5.41797 88.6524V115H9.12065L15.75 108.371L22.3793 115H26.082V103.32H88.9727V18.7583ZM71.0039 4.60112L84.3715 17.9688H71.0039V4.60112ZM2.72266 76.8164C2.72266 69.6332 8.56677 63.7891 15.75 63.7891C22.9332 63.7891 28.7773 69.6332 28.7773 76.8164C28.7773 83.9996 22.9332 89.8438 15.75 89.8438C8.56677 89.8438 2.72266 83.9996 2.72266 76.8164ZM15.75 104.559L8.11328 112.196V90.5533C10.3762 91.8163 12.9797 92.5393 15.75 92.5393C18.5203 92.5393 21.1238 91.8163 23.3867 90.5533V112.196L15.75 104.559ZM26.082 100.625V88.6524C29.382 85.768 31.4727 81.5332 31.4727 76.8164C31.4727 68.6013 25.138 61.8419 17.0977 61.1553V2.69531H68.3086V20.6641H86.2773V100.625H26.082Z" fill="#333333"/>
<path d="M26.5312 14.375H48.0938V17.0703H26.5312V14.375Z" fill="#333333"/>
<path d="M26.5312 21.5625H40.9062V24.2578H26.5312V21.5625Z" fill="#333333"/>
<path d="M26.5312 32.3438H76.8438V35.0391H26.5312V32.3438Z" fill="#333333"/>
<path d="M26.5312 39.5312H76.8438V42.2266H26.5312V39.5312Z" fill="#333333"/>
<path d="M26.5312 53.9062H76.8438V56.6016H26.5312V53.9062Z" fill="#333333"/>
<path d="M33.7188 61.0938H69.6562V63.7891H33.7188V61.0938Z" fill="#333333"/>
<path d="M26.5312 46.7188H76.8438V49.4141H26.5312V46.7188Z" fill="#333333"/>
<path d="M55.2812 71.875H76.8438V74.5703H55.2812V71.875Z" fill="#333333"/>
<path d="M62.4688 79.0625H76.8438V81.7578H62.4688V79.0625Z" fill="#333333"/>
<path d="M15.75 85.3516C20.4562 85.3516 24.2852 81.5226 24.2852 76.8164C24.2852 72.1102 20.4562 68.2812 15.75 68.2812C11.0438 68.2812 7.21484 72.1102 7.21484 76.8164C7.21484 81.5226 11.0438 85.3516 15.75 85.3516ZM15.75 70.9766C18.9702 70.9766 21.5898 73.5962 21.5898 76.8164C21.5898 80.0366 18.9702 82.6562 15.75 82.6562C12.5298 82.6562 9.91016 80.0366 9.91016 76.8164C9.91016 73.5962 12.5298 70.9766 15.75 70.9766Z" fill="#333333"/>
</svg>
