<svg width="480" height="826" viewBox="0 0 480 826" fill="none" xmlns="http://www.w3.org/2000/svg">
<path d="M9.00375 451.33C9.00375 451.33 116.616 398.246 326.857 446.306C507.836 479.81 526.108 375.12 625.169 406.008" stroke="#F9F9F9" stroke-width="16"/>
<path d="M9.00375 476.447C9.00375 476.447 116.616 423.364 326.857 471.424C507.836 504.928 526.108 400.238 625.169 431.126" stroke="#F9F9F9" stroke-width="16"/>
<path d="M9.00375 502.778C9.00375 502.778 116.616 449.694 326.857 497.754C507.836 531.258 526.108 426.568 625.169 457.456" stroke="#F9F9F9" stroke-width="16"/>
<path d="M9.00375 527.895C9.00375 527.895 116.616 474.812 326.857 522.872C507.836 556.376 526.108 451.686 625.169 482.574" stroke="#F9F9F9" stroke-width="16"/>
<path d="M8.00375 554.778C8.00375 554.778 115.616 501.694 325.857 549.754C506.836 583.258 525.108 478.568 624.169 509.456" stroke="#F9F9F9" stroke-width="16"/>
<path d="M8.00375 579.895C8.00375 579.895 115.616 526.812 325.857 574.872C506.836 608.376 525.108 503.686 624.169 534.574" stroke="#F9F9F9" stroke-width="16"/>
<path d="M8.00375 605.778C8.00375 605.778 115.616 552.694 325.857 600.754C506.836 634.258 525.108 529.568 624.169 560.456" stroke="#F9F9F9" stroke-width="16"/>
<path d="M8.00375 630.895C8.00375 630.895 115.616 577.812 325.857 625.872C506.836 659.376 525.108 554.686 624.169 585.574" stroke="#F9F9F9" stroke-width="16"/>
<path d="M5.00375 240.33C5.00375 240.33 112.616 187.246 322.857 235.306C503.836 268.81 522.108 164.12 621.169 195.008" stroke="#F9F9F9" stroke-width="16"/>
<path d="M5.00375 265.447C5.00375 265.447 112.616 212.364 322.857 260.424C503.836 293.928 522.108 189.238 621.169 220.126" stroke="#F9F9F9" stroke-width="16"/>
<path d="M5.00375 291.778C5.00375 291.778 112.616 238.694 322.857 286.754C503.836 320.258 522.108 215.568 621.169 246.456" stroke="#F9F9F9" stroke-width="16"/>
<path d="M5.00375 316.895C5.00375 316.895 112.616 263.812 322.857 311.872C503.836 345.376 522.108 240.686 621.169 271.574" stroke="#F9F9F9" stroke-width="16"/>
<path d="M4.00375 343.778C4.00375 343.778 111.616 290.694 321.857 338.754C502.836 372.258 521.108 267.568 620.169 298.456" stroke="#F9F9F9" stroke-width="16"/>
<path d="M4.00375 368.895C4.00375 368.895 111.616 315.812 321.857 363.872C502.836 397.376 521.108 292.686 620.169 323.574" stroke="#F9F9F9" stroke-width="16"/>
<path d="M4.00375 394.778C4.00375 394.778 111.616 341.694 321.857 389.754C502.836 423.258 521.108 318.568 620.169 349.456" stroke="#F9F9F9" stroke-width="16"/>
<path d="M4.00375 419.895C4.00375 419.895 111.616 366.812 321.857 414.872C502.836 448.376 521.108 343.686 620.169 374.574" stroke="#F9F9F9" stroke-width="16"/>
</svg>
