<svg width="574" height="826" viewBox="0 0 574 826" fill="none" xmlns="http://www.w3.org/2000/svg">
<path d="M-44.9962 451.33C-44.9962 451.33 62.6155 398.246 272.857 446.306C453.836 479.811 472.108 375.12 571.169 406.009" stroke="#1F2845" stroke-width="16"/>
<path d="M-44.9962 476.447C-44.9962 476.447 62.6155 423.364 272.857 471.424C453.836 504.928 472.108 400.238 571.169 431.126" stroke="#1F2845" stroke-width="16"/>
<path d="M-44.9962 502.778C-44.9962 502.778 62.6155 449.694 272.857 497.754C453.836 531.258 472.108 426.568 571.169 457.456" stroke="#1F2845" stroke-width="16"/>
<path d="M-44.9962 527.896C-44.9962 527.896 62.6155 474.812 272.857 522.872C453.836 556.377 472.108 451.686 571.169 482.575" stroke="#1F2845" stroke-width="16"/>
<path d="M-45.9962 554.778C-45.9962 554.778 61.6155 501.694 271.857 549.754C452.836 583.258 471.108 478.568 570.169 509.456" stroke="#1F2845" stroke-width="16"/>
<path d="M-45.9962 579.896C-45.9962 579.896 61.6155 526.812 271.857 574.872C452.836 608.377 471.108 503.686 570.169 534.575" stroke="#1F2845" stroke-width="16"/>
<path d="M-45.9962 605.778C-45.9962 605.778 61.6155 552.694 271.857 600.754C452.836 634.258 471.108 529.568 570.169 560.456" stroke="#1F2845" stroke-width="16"/>
<path d="M-45.9962 630.896C-45.9962 630.896 61.6155 577.812 271.857 625.872C452.836 659.377 471.108 554.686 570.169 585.575" stroke="#1F2845" stroke-width="16"/>
<path d="M-48.9962 240.33C-48.9962 240.33 58.6155 187.246 268.857 235.306C449.836 268.811 468.108 164.12 567.169 195.009" stroke="#1F2845" stroke-width="16"/>
<path d="M-48.9962 265.447C-48.9962 265.447 58.6155 212.364 268.857 260.424C449.836 293.928 468.108 189.238 567.169 220.126" stroke="#1F2845" stroke-width="16"/>
<path d="M-48.9962 291.778C-48.9962 291.778 58.6155 238.694 268.857 286.754C449.836 320.258 468.108 215.568 567.169 246.456" stroke="#1F2845" stroke-width="16"/>
<path d="M-48.9962 316.896C-48.9962 316.896 58.6155 263.812 268.857 311.872C449.836 345.377 468.108 240.686 567.169 271.575" stroke="#1F2845" stroke-width="16"/>
<path d="M-49.9962 343.778C-49.9962 343.778 57.6155 290.694 267.857 338.754C448.836 372.258 467.108 267.568 566.169 298.456" stroke="#1F2845" stroke-width="16"/>
<path d="M-49.9962 368.896C-49.9962 368.896 57.6155 315.812 267.857 363.872C448.836 397.377 467.108 292.686 566.169 323.575" stroke="#1F2845" stroke-width="16"/>
<path d="M-49.9962 394.778C-49.9962 394.778 57.6155 341.694 267.857 389.754C448.836 423.258 467.108 318.568 566.169 349.456" stroke="#1F2845" stroke-width="16"/>
<path d="M-49.9962 419.896C-49.9962 419.896 57.6155 366.812 267.857 414.872C448.836 448.377 467.108 343.686 566.169 374.575" stroke="#1F2845" stroke-width="16"/>
</svg>
