<svg width="573" height="615" viewBox="0 0 573 615" fill="none" xmlns="http://www.w3.org/2000/svg">
<path d="M-45.9962 240.33C-45.9962 240.33 61.6155 187.246 271.857 235.306C452.836 268.81 471.108 164.12 570.169 195.008" stroke="#F9F9F9" stroke-width="16"/>
<path d="M-45.9962 265.447C-45.9962 265.447 61.6155 212.364 271.857 260.424C452.836 293.928 471.108 189.238 570.169 220.126" stroke="#F9F9F9" stroke-width="16"/>
<path d="M-45.9962 291.778C-45.9962 291.778 61.6155 238.694 271.857 286.754C452.836 320.258 471.108 215.568 570.169 246.456" stroke="#F9F9F9" stroke-width="16"/>
<path d="M-45.9962 316.895C-45.9962 316.895 61.6155 263.812 271.857 311.872C452.836 345.376 471.108 240.686 570.169 271.574" stroke="#F9F9F9" stroke-width="16"/>
<path d="M-46.9962 343.778C-46.9962 343.778 60.6155 290.694 270.857 338.754C451.836 372.258 470.108 267.568 569.169 298.456" stroke="#F9F9F9" stroke-width="16"/>
<path d="M-46.9962 368.895C-46.9962 368.895 60.6155 315.812 270.857 363.872C451.836 397.376 470.108 292.686 569.169 323.574" stroke="#F9F9F9" stroke-width="16"/>
<path d="M-46.9962 394.778C-46.9962 394.778 60.6155 341.694 270.857 389.754C451.836 423.258 470.108 318.568 569.169 349.456" stroke="#F9F9F9" stroke-width="16"/>
<path d="M-46.9962 419.895C-46.9962 419.895 60.6155 366.812 270.857 414.872C451.836 448.376 470.108 343.686 569.169 374.574" stroke="#F9F9F9" stroke-width="16"/>
</svg>
