<svg width="115" height="112" viewBox="0 0 115 112" fill="none" xmlns="http://www.w3.org/2000/svg">
<path d="M43.8103 13.0131H37.5801C36.6497 13.0131 35.8955 13.7607 35.8955 14.683C35.8955 15.6052 36.6497 16.3529 37.5801 16.3529H43.8103C44.7406 16.3529 45.4949 15.6052 45.4949 14.683C45.4949 13.7607 44.7406 13.0131 43.8103 13.0131Z" fill="#333333"/>
<path d="M53.2212 16.3529H77.4202C78.3507 16.3529 79.1047 15.6052 79.1047 14.683C79.1047 13.7607 78.3507 13.0131 77.4202 13.0131H53.2212C52.2909 13.0131 51.5366 13.7607 51.5366 14.683C51.5366 15.6052 52.2909 16.3529 53.2212 16.3529Z" fill="#333333"/>
<path d="M43.8103 22.5991H37.5801C36.6497 22.5991 35.8955 23.3468 35.8955 24.269C35.8955 25.1913 36.6497 25.939 37.5801 25.939H43.8103C44.7406 25.939 45.4949 25.1913 45.4949 24.269C45.4949 23.3468 44.7406 22.5991 43.8103 22.5991Z" fill="#333333"/>
<path d="M53.2212 25.939H77.4202C78.3507 25.939 79.1047 25.1913 79.1047 24.269C79.1047 23.3468 78.3507 22.5991 77.4202 22.5991H53.2212C52.2909 22.5991 51.5366 23.3468 51.5366 24.269C51.5366 25.1913 52.2909 25.939 53.2212 25.939Z" fill="#333333"/>
<path d="M43.8103 32.1854H37.5801C36.6497 32.1854 35.8955 32.9331 35.8955 33.8553C35.8955 34.7776 36.6497 35.5253 37.5801 35.5253H43.8103C44.7406 35.5253 45.4949 34.7776 45.4949 33.8553C45.4949 32.9331 44.7406 32.1854 43.8103 32.1854Z" fill="#333333"/>
<path d="M53.2212 35.5253H77.4202C78.3507 35.5253 79.1047 34.7776 79.1047 33.8553C79.1047 32.9331 78.3507 32.1854 77.4202 32.1854H53.2212C52.2909 32.1854 51.5366 32.9331 51.5366 33.8553C51.5366 34.7776 52.2909 35.5253 53.2212 35.5253Z" fill="#333333"/>
<path d="M79.6267 91.3301V83.1679C79.6267 81.5759 78.3202 80.2805 76.714 80.2805H38.2856C36.6796 80.2805 35.373 81.5757 35.373 83.1679V91.3301C35.373 92.922 36.6796 94.2175 38.2856 94.2175H76.714C78.3202 94.2175 79.6267 92.922 79.6267 91.3301ZM76.2576 90.8776H38.7422V83.6204H76.2576V90.8776Z" fill="#333333"/>
<path d="M43.8103 41.7715H37.5801C36.6497 41.7715 35.8955 42.5192 35.8955 43.4414C35.8955 44.3636 36.6497 45.1113 37.5801 45.1113H43.8103C44.7406 45.1113 45.4949 44.3636 45.4949 43.4414C45.4949 42.5192 44.7406 41.7715 43.8103 41.7715Z" fill="#333333"/>
<path d="M53.2212 45.1113H77.4202C78.3507 45.1113 79.1047 44.3636 79.1047 43.4414C79.1047 42.5192 78.3507 41.7715 77.4202 41.7715H53.2212C52.2909 41.7715 51.5366 42.5192 51.5366 43.4414C51.5366 44.3636 52.2909 45.1113 53.2212 45.1113Z" fill="#333333"/>
<path d="M43.8103 51.3575H37.5801C36.6497 51.3575 35.8955 52.1052 35.8955 53.0275C35.8955 53.9497 36.6497 54.6974 37.5801 54.6974H43.8103C44.7406 54.6974 45.4949 53.9497 45.4949 53.0275C45.4949 52.1052 44.7406 51.3575 43.8103 51.3575Z" fill="#333333"/>
<path d="M53.2212 54.6974H77.4202C78.3507 54.6974 79.1047 53.9497 79.1047 53.0275C79.1047 52.1052 78.3507 51.3575 77.4202 51.3575H53.2212C52.2909 51.3575 51.5366 52.1052 51.5366 53.0275C51.5366 53.9497 52.2909 54.6974 53.2212 54.6974Z" fill="#333333"/>
<path d="M44.7261 99.5977C43.7957 99.5977 43.0415 100.345 43.0415 101.268C43.0415 102.19 43.7957 102.938 44.7261 102.938H70.2734C71.2039 102.938 71.9579 102.19 71.9579 101.268C71.9579 100.345 71.2039 99.5977 70.2734 99.5977H44.7261Z" fill="#333333"/>
<path d="M113.315 63.1963H106.127L110.452 34.1672C110.587 33.2548 109.951 32.406 109.031 32.2713C108.111 32.1357 107.255 32.7669 107.118 33.6794L102.721 63.1963H88.5343V11.1802L109.531 14.5314C109.68 14.5552 109.77 14.6403 109.818 14.7075C109.867 14.7748 109.921 14.8859 109.893 15.0553L108.121 26.9467C107.986 27.8592 108.622 28.7079 109.542 28.8426C109.625 28.8549 109.708 28.8609 109.79 28.8609C110.611 28.8609 111.331 28.2644 111.454 27.4348L113.223 15.5647C113.385 14.5684 113.145 13.5693 112.549 12.7513C111.953 11.9332 111.071 11.3944 110.066 11.2341L88.5343 7.79716V4.38629C88.5343 2.30311 86.8245 0.608032 84.7229 0.608032H55.319C54.3887 0.608032 53.6345 1.35571 53.6345 2.27795C53.6345 3.2002 54.3887 3.94788 55.319 3.94788H84.7231C84.967 3.94788 85.1654 4.14448 85.1654 4.38629V63.1963H76.2338C74.1072 63.1963 72.1782 64.5231 71.4341 66.498L69.763 70.9329C69.5081 71.6091 68.8475 72.0635 68.1193 72.0635H46.8811C46.153 72.0635 45.4924 71.6091 45.2374 70.9329L43.5661 66.4978C42.822 64.5231 40.8931 63.1963 38.7665 63.1963H29.8349V4.38629C29.8349 4.1447 30.0332 3.94788 30.2771 3.94788H48.5837C49.514 3.94788 50.2682 3.2002 50.2682 2.27795C50.2682 1.35571 49.514 0.608032 48.5837 0.608032H30.2771C28.1757 0.608032 26.4657 2.30289 26.4657 4.38629V7.79716L4.93422 11.2339C3.92909 11.3942 3.04728 11.933 2.45071 12.751C1.85438 13.5691 1.61517 14.5681 1.77352 15.5431L8.87342 63.1963H1.68457C0.754238 63.1963 0 63.9437 0 64.8662V95.7096C0 104.357 7.09676 111.392 15.8197 111.392H23.1181C24.0485 111.392 24.8027 110.644 24.8027 109.722C24.8027 108.799 24.0485 108.052 23.1181 108.052H15.8197C8.9545 108.052 3.36914 102.515 3.36914 95.7099V66.5361H38.7662C39.4944 66.5361 40.155 66.9903 40.4097 67.6668L42.081 72.1018C42.8254 74.0766 44.7543 75.4034 46.8809 75.4034H68.1191C70.2457 75.4034 72.1746 74.0766 72.9188 72.1016L74.5899 67.6668C74.8448 66.9905 75.5054 66.5361 76.2335 66.5361H111.631V95.7096C111.631 102.515 106.045 108.052 99.1801 108.052H29.8535C28.9232 108.052 28.1689 108.799 28.1689 109.722C28.1689 110.644 28.9232 111.392 29.8535 111.392H99.1803C107.903 111.392 115 104.357 115 95.7096V64.8662C115 63.9439 114.246 63.1963 113.315 63.1963ZM5.10335 15.0339C5.07932 14.8856 5.13255 14.7745 5.18151 14.7075C5.23048 14.6403 5.3201 14.5552 5.46969 14.5314L26.4657 11.1802V63.1963H12.2789L5.10335 15.0339Z" fill="#333333"/>
</svg>
