<svg width="220" height="221" viewBox="0 0 220 221" fill="none" xmlns="http://www.w3.org/2000/svg">
<rect x="200.562" y="220.232" width="298.426" height="1" transform="rotate(-45 200.562 220.232)" fill="#F0005C"/>
<rect x="180.562" y="220.232" width="298.426" height="1" transform="rotate(-45 180.562 220.232)" fill="#F0005C"/>
<rect x="160.562" y="220.232" width="298.426" height="1" transform="rotate(-45 160.562 220.232)" fill="#F0005C"/>
<rect x="140.562" y="220.232" width="298.426" height="1" transform="rotate(-45 140.562 220.232)" fill="#F0005C"/>
<rect x="120.562" y="220.232" width="298.426" height="1" transform="rotate(-45 120.562 220.232)" fill="#F0005C"/>
<rect x="100.562" y="220.232" width="298.426" height="1" transform="rotate(-45 100.562 220.232)" fill="#F0005C"/>
<rect x="80.5615" y="220.232" width="298.426" height="1" transform="rotate(-45 80.5615 220.232)" fill="#F0005C"/>
<rect x="60.5615" y="220.232" width="298.426" height="1" transform="rotate(-45 60.5615 220.232)" fill="#F0005C"/>
<rect x="40.5615" y="220.232" width="298.426" height="1" transform="rotate(-45 40.5615 220.232)" fill="#F0005C"/>
<rect x="20.5615" y="220.232" width="298.426" height="1" transform="rotate(-45 20.5615 220.232)" fill="#F0005C"/>
<rect x="0.561523" y="220.232" width="310.719" height="1" transform="rotate(-45 0.561523 220.232)" fill="#F0005C"/>
</svg>
