<?xml version="1.0" standalone="no"?>
<!DOCTYPE svg PUBLIC "-//W3C//DTD SVG 20010904//EN"
 "http://www.w3.org/TR/2001/REC-SVG-20010904/DTD/svg10.dtd">
<svg version="1.0" xmlns="http://www.w3.org/2000/svg"
 width="260.000000pt" height="260.000000pt" viewBox="0 0 260.000000 260.000000"
 preserveAspectRatio="xMidYMid meet">
<metadata>
Created by potrace 1.14, written by Peter Selinger 2001-2017
</metadata>
<g transform="translate(0.000000,260.000000) scale(0.100000,-0.100000)"
fill="#000000" stroke="none">
<path d="M970 2409 c-19 -4 -51 -10 -70 -13 -56 -8 -185 -53 -258 -89 -299
-148 -532 -436 -603 -746 -26 -115 -32 -158 -33 -276 -2 -90 1 -126 19 -230
34 -212 165 -444 337 -599 66 -60 188 -146 207 -146 6 0 11 -4 11 -8 0 -4 12
-13 28 -19 15 -6 59 -24 97 -41 57 -24 115 -41 188 -58 4 -1 8 -2 10 -3 5 -4
120 -20 147 -21 8 0 33 -1 55 -1 59 -2 65 -2 130 5 112 12 152 21 250 53 172
56 321 148 450 277 75 75 165 192 165 215 0 5 3 11 8 13 10 5 82 155 86 182 1
6 5 16 8 22 4 6 9 22 12 37 3 15 7 35 10 45 5 16 13 64 22 127 3 17 5 107 5
200 0 236 19 291 114 337 41 21 135 39 211 41 8 0 12 32 11 100 l0 99 -86 -7
c-95 -8 -99 -8 -161 -25 -52 -14 -138 -61 -164 -89 -23 -25 -30 -21 -53 27 -9
20 -21 42 -25 47 -5 6 -27 39 -51 75 -23 36 -80 103 -127 150 -126 125 -275
219 -430 270 -36 11 -72 23 -80 27 -8 3 -26 7 -40 9 -14 1 -50 7 -80 12 -63
11 -268 12 -320 1z m345 -104 c65 -11 195 -55 260 -87 218 -109 414 -314 489
-509 17 -43 17 -49 1 -104 -13 -44 -18 -108 -20 -264 -4 -203 -6 -227 -27
-306 -5 -22 -12 -49 -14 -59 -7 -35 -84 -183 -125 -237 -178 -240 -428 -368
-742 -382 -26 -2 -50 -1 -52 1 -2 3 -25 6 -51 8 -54 3 -126 19 -199 42 -27 9
-53 15 -57 14 -5 -1 -8 2 -8 8 0 5 -7 10 -16 10 -8 0 -41 14 -72 31 -201 111
-327 258 -415 479 -30 76 -57 185 -48 197 10 15 72 9 81 -7 4 -8 17 -51 29
-94 68 -249 249 -447 498 -545 29 -11 63 -23 75 -25 13 -3 34 -8 48 -11 111
-25 263 -25 375 0 55 12 169 58 220 88 194 114 335 299 390 512 24 92 30 451
9 533 -28 109 -104 201 -208 252 -63 31 -82 37 -151 47 -50 7 -155 7 -162 -1
-7 -7 -10 -165 -3 -176 3 -5 34 -11 70 -14 97 -9 111 -13 158 -35 50 -25 89
-80 100 -141 8 -48 8 -313 -1 -367 -29 -179 -134 -336 -279 -422 -133 -78
-319 -116 -443 -91 -27 6 -60 12 -73 15 -36 7 -142 63 -201 107 -107 80 -175
170 -211 279 -29 84 -31 99 -17 100 72 7 70 8 94 -60 41 -118 137 -235 233
-283 25 -13 47 -25 50 -28 3 -3 25 -12 50 -19 25 -7 52 -16 60 -19 23 -7 49
-10 115 -12 53 -1 85 3 173 24 52 12 152 76 212 136 75 74 121 156 142 250 17
76 14 187 -5 206 -6 6 -271 9 -439 5 l-38 -1 0 -52 c0 -29 -4 -58 -8 -64 -13
-19 -41 -23 -57 -8 -16 17 -18 28 -16 87 l1 37 -42 1 c-24 0 -244 0 -490 0
-336 0 -448 3 -449 12 -2 17 -2 17 6 67 4 25 8 54 9 65 2 11 5 27 8 35 3 8 15
47 27 85 69 213 219 409 412 536 84 55 200 109 274 128 22 6 43 11 47 12 90
26 310 33 423 14z m285 -479 c122 -24 209 -88 258 -192 27 -58 27 -61 28 -279
1 -132 -3 -225 -9 -232 -5 -7 -7 -13 -4 -13 4 0 0 -18 -8 -40 -8 -22 -15 -44
-16 -48 -9 -43 -50 -124 -95 -187 -111 -158 -289 -274 -473 -309 -70 -13 -217
-14 -286 -2 -194 34 -388 156 -494 309 -48 70 -120 235 -113 260 1 4 -2 16 -7
26 -6 10 -13 33 -16 52 -3 19 -10 37 -14 42 -13 13 -225 12 -217 -2 3 -5 8
-26 11 -46 12 -93 18 -124 42 -195 110 -333 366 -569 696 -645 9 -2 20 -6 25
-8 31 -20 317 -29 392 -13 88 18 119 26 146 37 34 14 49 19 59 19 3 0 40 18
82 41 241 127 414 334 486 579 36 120 39 150 42 375 3 206 15 283 50 319 8 8
15 17 15 21 0 3 16 21 35 40 59 55 153 91 263 99 40 3 42 2 42 -25 0 -34 -2
-36 -65 -43 -61 -6 -109 -22 -155 -51 -47 -30 -65 -52 -91 -110 -20 -45 -22
-69 -25 -250 -2 -110 -5 -213 -8 -230 -3 -16 -8 -46 -10 -65 -6 -48 -49 -176
-81 -244 -93 -197 -267 -374 -461 -469 -64 -32 -168 -72 -211 -82 -10 -3 -36
-9 -58 -14 -51 -13 -156 -24 -220 -24 -353 2 -673 166 -881 452 -24 34 -41 61
-38 61 4 0 0 8 -8 18 -40 47 -96 201 -123 342 -8 42 -15 154 -10 170 4 13 65
15 471 15 l467 0 12 -48 c7 -26 14 -49 16 -50 86 -68 177 -39 195 61 3 15 8
29 10 32 11 10 344 6 347 -5 5 -12 0 -100 -7 -132 -23 -105 -136 -242 -241
-292 -90 -43 -119 -50 -205 -53 -220 -8 -438 164 -475 374 -10 53 -4 51 -172
49 -58 -1 -62 -2 -58 -23 3 -12 7 -39 10 -60 11 -70 47 -163 91 -235 45 -72
174 -203 200 -203 8 0 14 -4 14 -8 0 -10 113 -68 161 -83 136 -42 311 -43 419
-2 8 3 21 7 28 9 26 5 143 64 184 92 63 44 136 119 173 177 32 51 72 142 80
183 2 12 6 26 9 30 17 29 25 305 12 429 -10 90 -65 173 -141 208 -34 16 -104
33 -155 38 -29 3 -35 7 -35 28 -1 13 4 27 10 31 9 7 55 4 105 -6z"/>
<path d="M739 1216 c-1 -6 -1 -20 0 -31 1 -11 3 -30 3 -42 1 -13 6 -23 12 -23
5 0 6 -3 3 -7 -10 -10 42 -93 82 -131 135 -128 329 -153 492 -65 119 64 206
200 185 288 -5 18 -13 20 -97 20 -99 -1 -95 1 -159 -82 -59 -78 -211 -77 -266
2 -56 79 -51 77 -157 79 -63 2 -97 -1 -98 -8z m180 -86 c58 -87 147 -124 269
-110 17 3 32 9 32 14 0 5 3 6 7 3 7 -8 72 38 92 67 32 43 47 52 87 50 21 -1
40 -2 42 -3 9 -4 -45 -86 -79 -120 -89 -87 -216 -120 -331 -86 -79 23 -166 89
-200 152 -16 28 -28 53 -28 56 0 3 21 5 47 3 36 -2 50 -8 62 -26z"/>
</g>
</svg>
