<svg xmlns="http://www.w3.org/2000/svg" viewBox="0 0 834 646"><g style="fill: none; stroke: #fff; stroke-width: 4px;">
<path d="M439.72,213.41c-6.11-10.58-12.07-20.94-18.05-31.28-5.3-9.15-5.32-9.17,3.65-14.35Q484.15,133.84,543,99.92c18.15-10.49,36.21-21.13,54.28-31.75,2.13-1.25,3.72-2.1,6.11,0,28,24.7,51.08,53.28,68.44,86.41a288.09,288.09,0,0,1,28.55,84.3c4.22,24,4.21,48.36,2.77,72.7-1.13,19.23-4.89,38-10.25,56.36a285.64,285.64,0,0,1-40.66,84.64,293.81,293.81,0,0,1-61.16,64.08,286.65,286.65,0,0,1-71.91,40.64A287.2,287.2,0,0,1,297.88,552a291.53,291.53,0,0,1-141-133.9A300.44,300.44,0,0,1,131,343.82c-.7-3.25-.39-5.1,2.61-6.95,13.17-8.13,26.17-16.51,40-25.27,1.12,7.07,2,13.7,3.24,20.25A245.06,245.06,0,0,0,300.38,500.68a244.4,244.4,0,0,0,83.1,26.92,234,234,0,0,0,87.75-4.55c46.69-11.19,86.58-34.48,119.68-69.38S645.06,377.29,653.78,330a249,249,0,0,0-7.09-114,245.21,245.21,0,0,0-49.19-87.82c-3-3.5-5.44-2.5-8.59-.67q-44.05,25.58-88.18,51Q472,195.07,443.17,211.6C442.19,212.16,441.17,212.65,439.72,213.41Z"/><path d="M630.05,307.51c-2.78,71.56-59.1,164.09-161.5,190C353.91,526.47,246,460.33,210.82,360c-40-114.24,19.45-221,103.6-264l23.25,39.92c-6.11,3.85-12.09,7.34-17.78,11.25-30.12,20.7-51.66,48.11-64.37,82.48a168.87,168.87,0,0,0,22.1,157.08q34.44,47.28,90.51,63.87a159.48,159.48,0,0,0,75.1,4.36c45.37-8.35,82-30.9,109.38-68.33A169.76,169.76,0,0,0,575.55,343a12.36,12.36,0,0,1,4.74-5.95c15.71-9.7,31.59-19.14,47.42-28.64A15.25,15.25,0,0,1,630.05,307.51Z"/><path d="M558.21,302.55c-4.7,54.26-45.19,110.82-111.67,125.73s-131.22-17.45-160.87-77c-30.91-62.05-10.65-126.85,24.52-162a52.29,52.29,0,0,1,3,4.46c6.3,11.72,12.46,23.52,18.86,35.2,1.63,3,1.63,5.22-.16,8.2-12.22,20.49-17,42.62-12.86,66.21,7.65,43.87,42,75.63,83.64,80.51,39.73,4.65,71.12-10.87,94.22-43.48a26.18,26.18,0,0,1,7.89-7.22c15.93-9.36,32-18.41,48.07-27.58Z"/><path d="M585.26,190c13.4.2,22.87,10.2,22.61,23.89a23.41,23.41,0,0,1-23.15,22.79c-12.71,0-23.37-11-23.26-23.81C561.57,199.64,571.84,189.76,585.26,190Z"/></g></svg>